STARTFONT 2.1
COMMENT  
COMMENT  WARNING:  This bdf file was generated from an X server using
COMMENT  xbdfdump.  The resulting font is subject to the same copyright,
COMMENT  license, and trademark restrictions as the original font.  The
COMMENT  author and distributors of xbdfdump disclaim all liability for
COMMENT  misuse of the program or its output.
COMMENT  
FONT spc12x12e
SIZE 11 74 74
FONTBOUNDINGBOX 12 12 0 0
STARTPROPERTIES 7
POINT_SIZE 110
WEIGHT 292
X_HEIGHT 12
QUAD_WIDTH 12
DEFAULT_CHAR 0
FONT_ASCENT 12
FONT_DESCENT 0
ENDPROPERTIES
CHARS 256
STARTCHAR C000
ENCODING 0
SWIDTH 1061 0
DWIDTH 12 0
BBX 0 0 0 0
BITMAP
ENDCHAR
STARTCHAR C001
ENCODING 1
SWIDTH 1061 0
DWIDTH 12 0
BBX 12 11 0 1
BITMAP
3fc0
4020
8010
9990
9990
8010
9090
9f90
8010
4020
3fc0
ENDCHAR
STARTCHAR C002
ENCODING 2
SWIDTH 1061 0
DWIDTH 12 0
BBX 12 11 0 1
BITMAP
3fc0
7fe0
fff0
e670
e670
fff0
fff0
e670
f0f0
7fe0
3fc0
ENDCHAR
STARTCHAR C003
ENCODING 3
SWIDTH 1061 0
DWIDTH 12 0
BBX 10 10 1 2
BITMAP
3300
7f80
ffc0
ffc0
ffc0
ffc0
7f80
3f00
1e00
0c00
ENDCHAR
STARTCHAR C004
ENCODING 4
SWIDTH 1061 0
DWIDTH 12 0
BBX 10 9 1 2
BITMAP
0c00
1e00
3f00
7f80
ffc0
7f80
3f00
1e00
0c00
ENDCHAR
STARTCHAR C005
ENCODING 5
SWIDTH 1061 0
DWIDTH 12 0
BBX 10 12 1 0
BITMAP
1e00
3f00
3f00
1e00
6d80
ffc0
ffc0
ffc0
6d80
0c00
1e00
3f00
ENDCHAR
STARTCHAR C006
ENCODING 6
SWIDTH 1061 0
DWIDTH 12 0
BBX 10 12 1 0
BITMAP
0c00
1e00
3f00
7f80
7f80
ffc0
ffc0
edc0
ccc0
0c00
1e00
3f00
ENDCHAR
STARTCHAR C007
ENCODING 7
SWIDTH 1061 0
DWIDTH 12 0
BBX 8 8 2 2
BITMAP
3c
7e
ff
ff
ff
ff
7e
3c
ENDCHAR
STARTCHAR C010
ENCODING 8
SWIDTH 1061 0
DWIDTH 12 0
BBX 12 12 0 0
BITMAP
fff0
fff0
f0f0
e070
c030
c030
c030
c030
e070
f0f0
fff0
fff0
ENDCHAR
STARTCHAR C011
ENCODING 9
SWIDTH 1061 0
DWIDTH 12 0
BBX 9 9 2 1
BITMAP
3e00
4100
8080
8080
8080
8080
8080
4100
3e00
ENDCHAR
STARTCHAR C012
ENCODING 10
SWIDTH 1061 0
DWIDTH 12 0
BBX 12 12 0 0
BITMAP
fff0
fff0
f070
efb0
dfd0
dfd0
dfd0
dfd0
dfd0
efb0
f070
fff0
ENDCHAR
STARTCHAR C013
ENCODING 11
SWIDTH 1061 0
DWIDTH 12 0
BBX 10 12 2 0
BITMAP
07c0
03c0
03c0
07c0
3e40
7e00
e700
c300
c300
e700
7e00
3c00
ENDCHAR
STARTCHAR C014
ENCODING 12
SWIDTH 1061 0
DWIDTH 12 0
BBX 8 12 2 0
BITMAP
3c
7e
e7
c3
c3
e7
7e
18
7e
7e
18
18
ENDCHAR
STARTCHAR C015
ENCODING 13
SWIDTH 1061 0
DWIDTH 12 0
BBX 10 12 2 0
BITMAP
1fc0
1fc0
18c0
1fc0
1fc0
1800
1800
1800
7800
f800
f000
6000
ENDCHAR
STARTCHAR C016
ENCODING 14
SWIDTH 1061 0
DWIDTH 12 0
BBX 11 12 1 0
BITMAP
1fe0
1fe0
1860
1fe0
1fe0
1860
1860
19e0
7be0
fbc0
f180
6000
ENDCHAR
STARTCHAR C017
ENCODING 15
SWIDTH 1061 0
DWIDTH 12 0
BBX 12 12 0 0
BITMAP
8610
4620
2640
0f00
1980
f0f0
f0f0
1980
0f00
2640
4620
8610
ENDCHAR
STARTCHAR C020
ENCODING 16
SWIDTH 1061 0
DWIDTH 12 0
BBX 7 11 4 1
BITMAP
c0
e0
f0
f8
fc
fe
fc
f8
f0
e0
c0
ENDCHAR
STARTCHAR C021
ENCODING 17
SWIDTH 1061 0
DWIDTH 12 0
BBX 7 11 1 1
BITMAP
06
0e
1e
3e
7e
fe
7e
3e
1e
0e
06
ENDCHAR
STARTCHAR C022
ENCODING 18
SWIDTH 1061 0
DWIDTH 12 0
BBX 8 12 2 0
BITMAP
18
3c
7e
ff
18
18
18
18
ff
7e
3c
18
ENDCHAR
STARTCHAR C023
ENCODING 19
SWIDTH 1061 0
DWIDTH 12 0
BBX 6 11 3 1
BITMAP
cc
cc
cc
cc
cc
cc
cc
cc
00
cc
cc
ENDCHAR
STARTCHAR C024
ENCODING 20
SWIDTH 1061 0
DWIDTH 12 0
BBX 9 11 2 1
BITMAP
7f80
ff80
cd80
cd80
7d80
0d80
0d80
0d80
0d80
0d80
0d80
ENDCHAR
STARTCHAR C025
ENCODING 21
SWIDTH 1061 0
DWIDTH 12 0
BBX 9 11 2 0
BITMAP
3f00
7f80
6080
7e00
7f00
6300
7f00
3f00
8300
ff00
7e00
ENDCHAR
STARTCHAR C026
ENCODING 22
SWIDTH 1061 0
DWIDTH 12 0
BBX 8 5 2 1
BITMAP
ff
ff
ff
ff
ff
ENDCHAR
STARTCHAR C027
ENCODING 23
SWIDTH 1061 0
DWIDTH 12 0
BBX 8 12 2 0
BITMAP
18
3c
7e
ff
18
18
18
ff
7e
3c
18
ff
ENDCHAR
STARTCHAR C030
ENCODING 24
SWIDTH 1061 0
DWIDTH 12 0
BBX 8 12 2 0
BITMAP
18
3c
7e
ff
ff
18
18
18
18
18
18
18
ENDCHAR
STARTCHAR C031
ENCODING 25
SWIDTH 1061 0
DWIDTH 12 0
BBX 8 12 2 0
BITMAP
18
18
18
18
18
18
18
ff
ff
7e
3c
18
ENDCHAR
STARTCHAR C032
ENCODING 26
SWIDTH 1061 0
DWIDTH 12 0
BBX 10 10 2 1
BITMAP
0400
0600
0300
0380
ffc0
ffc0
0380
0300
0600
0400
ENDCHAR
STARTCHAR C033
ENCODING 27
SWIDTH 1061 0
DWIDTH 12 0
BBX 10 10 0 1
BITMAP
0800
1800
3000
7000
ffc0
ffc0
7000
3000
1800
0800
ENDCHAR
STARTCHAR C034
ENCODING 28
SWIDTH 1061 0
DWIDTH 12 0
BBX 10 6 2 3
BITMAP
c000
c000
c000
c000
ffc0
ffc0
ENDCHAR
STARTCHAR C035
ENCODING 29
SWIDTH 1061 0
DWIDTH 12 0
BBX 12 8 0 2
BITMAP
1080
30c0
70e0
fff0
fff0
70e0
30c0
1080
ENDCHAR
STARTCHAR C036
ENCODING 30
SWIDTH 1061 0
DWIDTH 12 0
BBX 10 6 1 4
BITMAP
0c00
1e00
3f00
7f80
ffc0
ffc0
ENDCHAR
STARTCHAR C037
ENCODING 31
SWIDTH 1061 0
DWIDTH 12 0
BBX 10 6 1 4
BITMAP
ffc0
ffc0
7f80
3f00
1e00
0c00
ENDCHAR
STARTCHAR space
ENCODING 32
SWIDTH 1061 0
DWIDTH 12 0
BBX 0 0 0 0
BITMAP
ENDCHAR
STARTCHAR exclam
ENCODING 33
SWIDTH 1061 0
DWIDTH 12 0
BBX 4 11 4 1
BITMAP
60
f0
f0
f0
f0
f0
60
60
00
60
60
ENDCHAR
STARTCHAR quotedbl
ENCODING 34
SWIDTH 1061 0
DWIDTH 12 0
BBX 6 5 3 7
BITMAP
cc
cc
cc
cc
cc
ENDCHAR
STARTCHAR numbersign
ENCODING 35
SWIDTH 1061 0
DWIDTH 12 0
BBX 10 11 1 1
BITMAP
1200
3300
3300
7f80
ffc0
3300
ffc0
7f80
3300
3300
1200
ENDCHAR
STARTCHAR dollar
ENCODING 36
SWIDTH 1061 0
DWIDTH 12 0
BBX 7 12 2 0
BITMAP
18
1a
7e
fe
c2
fc
7e
86
fe
fc
98
18
ENDCHAR
STARTCHAR percent
ENCODING 37
SWIDTH 1061 0
DWIDTH 12 0
BBX 10 10 1 1
BITMAP
60c0
f1c0
f380
6700
0e00
1c00
3980
73c0
e3c0
c180
ENDCHAR
STARTCHAR ampersand
ENCODING 38
SWIDTH 1061 0
DWIDTH 12 0
BBX 10 11 2 1
BITMAP
3c00
7e00
6600
7e00
3dc0
7dc0
ef00
c700
e300
ff80
7cc0
ENDCHAR
STARTCHAR apostrophe
ENCODING 39
SWIDTH 1061 0
DWIDTH 12 0
BBX 4 6 6 6
BITMAP
60
f0
f0
70
60
c0
ENDCHAR
STARTCHAR parenleft
ENCODING 40
SWIDTH 1061 0
DWIDTH 12 0
BBX 8 12 3 0
BITMAP
0f
3c
78
f0
e0
e0
e0
e0
f0
78
3c
0f
ENDCHAR
STARTCHAR parenright
ENCODING 41
SWIDTH 1061 0
DWIDTH 12 0
BBX 8 12 1 0
BITMAP
f0
3c
1e
0f
07
07
07
07
0f
1e
3c
f0
ENDCHAR
STARTCHAR asterisk
ENCODING 42
SWIDTH 1061 0
DWIDTH 12 0
BBX 8 8 2 2
BITMAP
c3
66
3c
ff
ff
3c
66
c3
ENDCHAR
STARTCHAR plus
ENCODING 43
SWIDTH 1061 0
DWIDTH 12 0
BBX 8 8 2 2
BITMAP
18
18
18
ff
ff
18
18
18
ENDCHAR
STARTCHAR comma
ENCODING 44
SWIDTH 1061 0
DWIDTH 12 0
BBX 4 6 6 0
BITMAP
e0
f0
f0
70
60
c0
ENDCHAR
STARTCHAR minus
ENCODING 45
SWIDTH 1061 0
DWIDTH 12 0
BBX 8 2 2 5
BITMAP
ff
ff
ENDCHAR
STARTCHAR period
ENCODING 46
SWIDTH 1061 0
DWIDTH 12 0
BBX 4 4 6 1
BITMAP
60
f0
f0
60
ENDCHAR
STARTCHAR slash
ENCODING 47
SWIDTH 1061 0
DWIDTH 12 0
BBX 10 9 1 1
BITMAP
00c0
0180
0300
0600
0c00
1800
3000
6000
c000
ENDCHAR
STARTCHAR 0
ENCODING 48
SWIDTH 1061 0
DWIDTH 12 0
BBX 8 11 2 1
BITMAP
3c
7e
c3
c7
cf
db
f3
e3
c3
7e
3c
ENDCHAR
STARTCHAR 1
ENCODING 49
SWIDTH 1061 0
DWIDTH 12 0
BBX 6 11 3 1
BITMAP
30
70
f0
30
30
30
30
30
30
78
fc
ENDCHAR
STARTCHAR 2
ENCODING 50
SWIDTH 1061 0
DWIDTH 12 0
BBX 8 11 2 1
BITMAP
3e
7f
e3
c7
0e
1c
38
70
e3
ff
ff
ENDCHAR
STARTCHAR 3
ENCODING 51
SWIDTH 1061 0
DWIDTH 12 0
BBX 8 11 2 1
BITMAP
7e
ff
c7
03
1e
1e
03
03
c7
ff
7e
ENDCHAR
STARTCHAR 4
ENCODING 52
SWIDTH 1061 0
DWIDTH 12 0
BBX 8 11 2 1
BITMAP
06
0e
1e
3e
76
e6
ff
ff
06
0f
0f
ENDCHAR
STARTCHAR 5
ENCODING 53
SWIDTH 1061 0
DWIDTH 12 0
BBX 8 11 2 1
BITMAP
ff
fe
c0
fc
fe
07
03
03
c7
fe
7c
ENDCHAR
STARTCHAR 6
ENCODING 54
SWIDTH 1061 0
DWIDTH 12 0
BBX 8 11 2 1
BITMAP
3e
7c
e0
c0
fe
ff
c3
c3
c3
ff
7e
ENDCHAR
STARTCHAR 7
ENCODING 55
SWIDTH 1061 0
DWIDTH 12 0
BBX 8 11 2 1
BITMAP
ff
ff
c7
0e
1c
38
38
38
38
38
38
ENDCHAR
STARTCHAR 8
ENCODING 56
SWIDTH 1061 0
DWIDTH 12 0
BBX 8 11 2 1
BITMAP
7e
ff
c3
c3
7e
7e
c3
c3
c3
ff
7e
ENDCHAR
STARTCHAR 9
ENCODING 57
SWIDTH 1061 0
DWIDTH 12 0
BBX 8 11 2 1
BITMAP
7e
ff
c3
c3
c3
ff
7f
03
07
3e
7c
ENDCHAR
STARTCHAR colon
ENCODING 58
SWIDTH 1061 0
DWIDTH 12 0
BBX 4 9 4 1
BITMAP
60
f0
f0
60
00
60
f0
f0
60
ENDCHAR
STARTCHAR semicolon
ENCODING 59
SWIDTH 1061 0
DWIDTH 12 0
BBX 4 11 4 0
BITMAP
60
f0
f0
60
00
60
f0
f0
70
60
c0
ENDCHAR
STARTCHAR less
ENCODING 60
SWIDTH 1061 0
DWIDTH 12 0
BBX 6 10 4 1
BITMAP
0c
1c
38
70
e0
e0
70
38
1c
0c
ENDCHAR
STARTCHAR equal
ENCODING 61
SWIDTH 1061 0
DWIDTH 12 0
BBX 8 6 2 3
BITMAP
ff
ff
00
00
ff
ff
ENDCHAR
STARTCHAR greater
ENCODING 62
SWIDTH 1061 0
DWIDTH 12 0
BBX 6 10 2 1
BITMAP
c0
e0
70
38
1c
1c
38
70
e0
c0
ENDCHAR
STARTCHAR question
ENCODING 63
SWIDTH 1061 0
DWIDTH 12 0
BBX 8 11 2 1
BITMAP
7e
ff
c3
c7
0e
1c
18
18
00
18
18
ENDCHAR
STARTCHAR at
ENCODING 64
SWIDTH 1061 0
DWIDTH 12 0
BBX 9 11 2 1
BITMAP
3e00
7f00
e180
cf80
df80
db80
df80
cc80
e000
7f00
3e00
ENDCHAR
STARTCHAR A
ENCODING 65
SWIDTH 1061 0
DWIDTH 12 0
BBX 8 11 2 1
BITMAP
18
3c
7e
e7
c3
ff
ff
c3
c3
c3
c3
ENDCHAR
STARTCHAR B
ENCODING 66
SWIDTH 1061 0
DWIDTH 12 0
BBX 8 11 2 1
BITMAP
fe
fe
c3
c3
ff
fe
c3
c3
c3
fe
fe
ENDCHAR
STARTCHAR C
ENCODING 67
SWIDTH 1061 0
DWIDTH 12 0
BBX 8 11 2 1
BITMAP
3e
7f
e3
c3
c0
c0
c0
c3
e3
7f
3e
ENDCHAR
STARTCHAR D
ENCODING 68
SWIDTH 1061 0
DWIDTH 12 0
BBX 8 11 2 1
BITMAP
fc
fe
c7
c3
c3
c3
c3
c3
c7
fe
fc
ENDCHAR
STARTCHAR E
ENCODING 69
SWIDTH 1061 0
DWIDTH 12 0
BBX 8 11 2 1
BITMAP
ff
ff
61
64
7c
7c
64
60
61
ff
ff
ENDCHAR
STARTCHAR F
ENCODING 70
SWIDTH 1061 0
DWIDTH 12 0
BBX 8 11 2 1
BITMAP
ff
ff
61
64
7c
7c
64
60
60
f0
f0
ENDCHAR
STARTCHAR G
ENCODING 71
SWIDTH 1061 0
DWIDTH 12 0
BBX 8 11 2 1
BITMAP
3e
7f
e3
c3
c0
c0
cf
cf
e3
7f
3d
ENDCHAR
STARTCHAR H
ENCODING 72
SWIDTH 1061 0
DWIDTH 12 0
BBX 8 11 2 1
BITMAP
c3
c3
c3
c3
ff
ff
c3
c3
c3
c3
c3
ENDCHAR
STARTCHAR I
ENCODING 73
SWIDTH 1061 0
DWIDTH 12 0
BBX 6 11 3 1
BITMAP
fc
fc
30
30
30
30
30
30
30
fc
fc
ENDCHAR
STARTCHAR J
ENCODING 74
SWIDTH 1061 0
DWIDTH 12 0
BBX 8 11 2 1
BITMAP
0f
0f
06
06
06
06
06
c6
e6
7e
3c
ENDCHAR
STARTCHAR K
ENCODING 75
SWIDTH 1061 0
DWIDTH 12 0
BBX 8 11 2 1
BITMAP
f7
67
6e
7c
78
78
78
7c
6e
67
f7
ENDCHAR
STARTCHAR L
ENCODING 76
SWIDTH 1061 0
DWIDTH 12 0
BBX 8 11 2 1
BITMAP
f0
f0
60
60
60
60
60
61
63
ff
ff
ENDCHAR
STARTCHAR M
ENCODING 77
SWIDTH 1061 0
DWIDTH 12 0
BBX 8 11 2 1
BITMAP
c3
e7
ff
ff
ff
db
db
c3
c3
c3
c3
ENDCHAR
STARTCHAR N
ENCODING 78
SWIDTH 1061 0
DWIDTH 12 0
BBX 9 11 2 1
BITMAP
c180
e180
f180
f980
dd80
cf80
c780
c380
c180
c180
c180
ENDCHAR
STARTCHAR O
ENCODING 79
SWIDTH 1061 0
DWIDTH 12 0
BBX 8 11 2 1
BITMAP
3c
7e
e7
c3
c3
c3
c3
c3
e7
7e
3c
ENDCHAR
STARTCHAR P
ENCODING 80
SWIDTH 1061 0
DWIDTH 12 0
BBX 8 11 2 1
BITMAP
fe
ff
63
63
7f
7e
60
60
60
f0
f0
ENDCHAR
STARTCHAR Q
ENCODING 81
SWIDTH 1061 0
DWIDTH 12 0
BBX 8 12 2 0
BITMAP
3c
7e
c3
c3
c3
c3
db
db
ef
76
07
03
ENDCHAR
STARTCHAR R
ENCODING 82
SWIDTH 1061 0
DWIDTH 12 0
BBX 8 11 2 1
BITMAP
fe
ff
63
63
7f
7e
6e
67
63
f3
f3
ENDCHAR
STARTCHAR S
ENCODING 83
SWIDTH 1061 0
DWIDTH 12 0
BBX 8 11 2 1
BITMAP
7e
ff
c1
c0
fe
7f
03
83
c3
ff
7e
ENDCHAR
STARTCHAR T
ENCODING 84
SWIDTH 1061 0
DWIDTH 12 0
BBX 8 11 2 1
BITMAP
ff
ff
99
18
18
18
18
18
18
3c
3c
ENDCHAR
STARTCHAR U
ENCODING 85
SWIDTH 1061 0
DWIDTH 12 0
BBX 8 11 2 1
BITMAP
c3
c3
c3
c3
c3
c3
c3
c3
c3
ff
7e
ENDCHAR
STARTCHAR V
ENCODING 86
SWIDTH 1061 0
DWIDTH 12 0
BBX 8 11 2 1
BITMAP
c3
c3
c3
c3
c3
c3
c3
e7
7e
3c
18
ENDCHAR
STARTCHAR W
ENCODING 87
SWIDTH 1061 0
DWIDTH 12 0
BBX 8 11 2 1
BITMAP
c3
c3
c3
c3
c3
c3
db
ff
ff
e7
c3
ENDCHAR
STARTCHAR X
ENCODING 88
SWIDTH 1061 0
DWIDTH 12 0
BBX 8 11 2 1
BITMAP
c3
c3
e7
7e
3c
3c
7e
e7
c3
c3
c3
ENDCHAR
STARTCHAR Y
ENCODING 89
SWIDTH 1061 0
DWIDTH 12 0
BBX 6 11 3 1
BITMAP
cc
cc
cc
cc
78
30
30
30
30
78
78
ENDCHAR
STARTCHAR Z
ENCODING 90
SWIDTH 1061 0
DWIDTH 12 0
BBX 8 11 2 1
BITMAP
ff
ff
83
07
0e
1c
38
70
e1
ff
ff
ENDCHAR
STARTCHAR bracketleft
ENCODING 91
SWIDTH 1061 0
DWIDTH 12 0
BBX 6 11 5 1
BITMAP
fc
fc
e0
e0
e0
e0
e0
e0
e0
fc
fc
ENDCHAR
STARTCHAR backslash
ENCODING 92
SWIDTH 1061 0
DWIDTH 12 0
BBX 10 9 1 1
BITMAP
c000
6000
3000
1800
0c00
0600
0300
0180
00c0
ENDCHAR
STARTCHAR bracketright
ENCODING 93
SWIDTH 1061 0
DWIDTH 12 0
BBX 6 11 1 1
BITMAP
fc
fc
1c
1c
1c
1c
1c
1c
1c
fc
fc
ENDCHAR
STARTCHAR asciicircum
ENCODING 94
SWIDTH 1061 0
DWIDTH 12 0
BBX 8 5 2 7
BITMAP
18
3c
7e
e7
c3
ENDCHAR
STARTCHAR underscore
ENCODING 95
SWIDTH 1061 0
DWIDTH 12 0
BBX 9 2 2 0
BITMAP
ff80
ff80
ENDCHAR
STARTCHAR grave
ENCODING 96
SWIDTH 1061 0
DWIDTH 12 0
BBX 4 6 2 6
BITMAP
60
f0
f0
e0
60
30
ENDCHAR
STARTCHAR a
ENCODING 97
SWIDTH 1061 0
DWIDTH 12 0
BBX 8 8 2 1
BITMAP
3e
63
03
7f
e3
c3
ff
79
ENDCHAR
STARTCHAR b
ENCODING 98
SWIDTH 1061 0
DWIDTH 12 0
BBX 8 11 2 1
BITMAP
e0
60
60
60
7e
7f
63
63
63
ff
de
ENDCHAR
STARTCHAR c
ENCODING 99
SWIDTH 1061 0
DWIDTH 12 0
BBX 8 8 2 1
BITMAP
3e
7f
e3
c0
c0
e3
7f
3e
ENDCHAR
STARTCHAR d
ENCODING 100
SWIDTH 1061 0
DWIDTH 12 0
BBX 8 11 2 1
BITMAP
0e
06
06
06
7e
fe
c6
c6
c6
ff
7b
ENDCHAR
STARTCHAR e
ENCODING 101
SWIDTH 1061 0
DWIDTH 12 0
BBX 8 8 2 1
BITMAP
3e
7f
e1
ff
fe
e0
7f
3e
ENDCHAR
STARTCHAR f
ENCODING 102
SWIDTH 1061 0
DWIDTH 12 0
BBX 7 11 2 1
BITMAP
3c
7e
66
60
f0
f0
60
60
60
f0
f0
ENDCHAR
STARTCHAR g
ENCODING 103
SWIDTH 1061 0
DWIDTH 12 0
BBX 8 9 2 0
BITMAP
7b
ff
c6
c6
fe
7e
06
fe
3c
ENDCHAR
STARTCHAR h
ENCODING 104
SWIDTH 1061 0
DWIDTH 12 0
BBX 8 11 2 1
BITMAP
e0
60
60
60
6e
7f
73
63
63
e3
e3
ENDCHAR
STARTCHAR i
ENCODING 105
SWIDTH 1061 0
DWIDTH 12 0
BBX 4 11 4 1
BITMAP
60
60
00
e0
60
60
60
60
60
f0
f0
ENDCHAR
STARTCHAR j
ENCODING 106
SWIDTH 1061 0
DWIDTH 12 0
BBX 6 12 4 0
BITMAP
0c
0c
00
1c
1c
0c
0c
0c
cc
cc
7c
38
ENDCHAR
STARTCHAR k
ENCODING 107
SWIDTH 1061 0
DWIDTH 12 0
BBX 8 11 2 1
BITMAP
e0
60
67
67
6e
7c
78
7c
6e
e7
e7
ENDCHAR
STARTCHAR l
ENCODING 108
SWIDTH 1061 0
DWIDTH 12 0
BBX 4 11 4 1
BITMAP
e0
60
60
60
60
60
60
60
60
f0
f0
ENDCHAR
STARTCHAR m
ENCODING 109
SWIDTH 1061 0
DWIDTH 12 0
BBX 8 8 2 1
BITMAP
b6
ff
db
db
db
c3
c3
c3
ENDCHAR
STARTCHAR n
ENCODING 110
SWIDTH 1061 0
DWIDTH 12 0
BBX 8 8 2 1
BITMAP
9e
ff
e3
c3
c3
c3
c3
c3
ENDCHAR
STARTCHAR o
ENCODING 111
SWIDTH 1061 0
DWIDTH 12 0
BBX 8 8 2 1
BITMAP
3c
7e
e7
c3
c3
e7
7e
3c
ENDCHAR
STARTCHAR p
ENCODING 112
SWIDTH 1061 0
DWIDTH 12 0
BBX 8 9 2 0
BITMAP
de
ff
63
63
7f
7e
60
60
f0
ENDCHAR
STARTCHAR q
ENCODING 113
SWIDTH 1061 0
DWIDTH 12 0
BBX 8 9 2 0
BITMAP
7b
ff
c6
c6
fe
7e
06
06
0f
ENDCHAR
STARTCHAR r
ENCODING 114
SWIDTH 1061 0
DWIDTH 12 0
BBX 8 8 2 1
BITMAP
de
7f
73
63
60
60
60
f0
ENDCHAR
STARTCHAR s
ENCODING 115
SWIDTH 1061 0
DWIDTH 12 0
BBX 8 8 2 1
BITMAP
7f
fe
c0
fe
7f
01
ff
fe
ENDCHAR
STARTCHAR t
ENCODING 116
SWIDTH 1061 0
DWIDTH 12 0
BBX 7 11 3 1
BITMAP
10
30
70
fe
7c
70
70
70
72
3e
1c
ENDCHAR
STARTCHAR u
ENCODING 117
SWIDTH 1061 0
DWIDTH 12 0
BBX 8 8 2 1
BITMAP
c6
c6
c6
c6
c6
ee
7f
3b
ENDCHAR
STARTCHAR v
ENCODING 118
SWIDTH 1061 0
DWIDTH 12 0
BBX 8 8 2 1
BITMAP
c3
c3
c3
c3
e7
7e
3c
18
ENDCHAR
STARTCHAR w
ENCODING 119
SWIDTH 1061 0
DWIDTH 12 0
BBX 8 8 2 1
BITMAP
c3
c3
c3
db
ff
ff
e7
42
ENDCHAR
STARTCHAR x
ENCODING 120
SWIDTH 1061 0
DWIDTH 12 0
BBX 8 8 2 1
BITMAP
c3
e7
7e
3c
3c
7e
e7
c3
ENDCHAR
STARTCHAR y
ENCODING 121
SWIDTH 1061 0
DWIDTH 12 0
BBX 7 9 3 0
BITMAP
c6
c6
c6
c6
fe
7e
06
fe
3c
ENDCHAR
STARTCHAR z
ENCODING 122
SWIDTH 1061 0
DWIDTH 12 0
BBX 8 8 2 1
BITMAP
ff
ff
87
1e
78
e1
ff
ff
ENDCHAR
STARTCHAR braceleft
ENCODING 123
SWIDTH 1061 0
DWIDTH 12 0
BBX 7 11 3 1
BITMAP
0e
1e
18
18
38
f8
38
18
18
1e
0e
ENDCHAR
STARTCHAR bar
ENCODING 124
SWIDTH 1061 0
DWIDTH 12 0
BBX 2 11 5 1
BITMAP
c0
c0
c0
c0
c0
00
c0
c0
c0
c0
c0
ENDCHAR
STARTCHAR braceright
ENCODING 125
SWIDTH 1061 0
DWIDTH 12 0
BBX 7 11 2 1
BITMAP
e0
f0
30
30
38
3e
38
30
30
f0
e0
ENDCHAR
STARTCHAR asciitilde
ENCODING 126
SWIDTH 1061 0
DWIDTH 12 0
BBX 10 3 1 9
BITMAP
39c0
7f80
e700
ENDCHAR
STARTCHAR C177
ENCODING 127
SWIDTH 1061 0
DWIDTH 12 0
BBX 7 9 2 1
BITMAP
10
38
7c
ee
c6
c6
c6
fe
fe
ENDCHAR
STARTCHAR C200
ENCODING 128
SWIDTH 1061 0
DWIDTH 12 0
BBX 8 12 2 0
BITMAP
3e
7f
e3
c0
c0
c0
e3
7f
3e
0c
7c
38
ENDCHAR
STARTCHAR C201
ENCODING 129
SWIDTH 1061 0
DWIDTH 12 0
BBX 8 11 2 1
BITMAP
c6
c6
00
c6
c6
c6
c6
c6
ee
7f
3b
ENDCHAR
STARTCHAR C202
ENCODING 130
SWIDTH 1061 0
DWIDTH 12 0
BBX 9 11 1 1
BITMAP
0780
1e00
0000
3f00
7f80
c080
ff80
ff00
c000
7f80
3f00
ENDCHAR
STARTCHAR C203
ENCODING 131
SWIDTH 1061 0
DWIDTH 12 0
BBX 8 11 2 1
BITMAP
3c
e7
00
3e
63
03
7f
e3
c3
ff
79
ENDCHAR
STARTCHAR C204
ENCODING 132
SWIDTH 1061 0
DWIDTH 12 0
BBX 8 11 2 1
BITMAP
77
77
00
3e
63
03
7f
e3
c3
ff
79
ENDCHAR
STARTCHAR C205
ENCODING 133
SWIDTH 1061 0
DWIDTH 12 0
BBX 8 11 2 1
BITMAP
f0
3c
00
7e
c3
03
7f
e7
c7
ff
79
ENDCHAR
STARTCHAR C206
ENCODING 134
SWIDTH 1061 0
DWIDTH 12 0
BBX 8 11 2 1
BITMAP
1c
1c
00
7e
c3
03
7f
e3
c3
ff
79
ENDCHAR
STARTCHAR C207
ENCODING 135
SWIDTH 1061 0
DWIDTH 12 0
BBX 8 11 2 0
BITMAP
3e
7f
e3
c0
c0
e3
7f
3e
06
7e
3c
ENDCHAR
STARTCHAR C210
ENCODING 136
SWIDTH 1061 0
DWIDTH 12 0
BBX 8 11 2 1
BITMAP
1c
77
00
3e
7f
e1
ff
fe
e0
7f
3e
ENDCHAR
STARTCHAR C211
ENCODING 137
SWIDTH 1061 0
DWIDTH 12 0
BBX 8 11 2 1
BITMAP
66
66
00
3e
7f
e1
ff
fe
e0
7f
3e
ENDCHAR
STARTCHAR C212
ENCODING 138
SWIDTH 1061 0
DWIDTH 12 0
BBX 8 11 2 1
BITMAP
f0
3c
00
3e
7f
e1
ff
fe
c0
7f
3e
ENDCHAR
STARTCHAR C213
ENCODING 139
SWIDTH 1061 0
DWIDTH 12 0
BBX 6 11 3 1
BITMAP
cc
cc
00
70
30
30
30
30
30
78
78
ENDCHAR
STARTCHAR C214
ENCODING 140
SWIDTH 1061 0
DWIDTH 12 0
BBX 7 11 2 1
BITMAP
38
ee
00
38
18
18
18
18
18
3c
3c
ENDCHAR
STARTCHAR C215
ENCODING 141
SWIDTH 1061 0
DWIDTH 12 0
BBX 5 11 3 1
BITMAP
e0
70
00
70
30
30
30
30
30
78
78
ENDCHAR
STARTCHAR C216
ENCODING 142
SWIDTH 1061 0
DWIDTH 12 0
BBX 7 11 2 1
BITMAP
c6
c6
10
38
7c
ee
c6
fe
fe
c6
c6
ENDCHAR
STARTCHAR C217
ENCODING 143
SWIDTH 1061 0
DWIDTH 12 0
BBX 7 11 2 1
BITMAP
38
38
10
38
7c
ee
c6
fe
fe
c6
c6
ENDCHAR
STARTCHAR C220
ENCODING 144
SWIDTH 1061 0
DWIDTH 12 0
BBX 8 11 2 1
BITMAP
0f
3c
00
fe
fe
c2
f8
f8
c2
fe
fe
ENDCHAR
STARTCHAR C221
ENCODING 145
SWIDTH 1061 0
DWIDTH 12 0
BBX 11 8 1 1
BITMAP
7bc0
ffe0
1e20
7fe0
ffc0
ce00
ffe0
7fc0
ENDCHAR
STARTCHAR C222
ENCODING 146
SWIDTH 1061 0
DWIDTH 12 0
BBX 9 11 2 1
BITMAP
3f80
7f80
ec80
cc00
ff00
ff00
cc00
cc00
cc80
cf80
cf80
ENDCHAR
STARTCHAR C223
ENCODING 147
SWIDTH 1061 0
DWIDTH 12 0
BBX 8 11 2 1
BITMAP
3c
e7
00
3c
7e
e7
c3
c3
e7
7e
3c
ENDCHAR
STARTCHAR C224
ENCODING 148
SWIDTH 1061 0
DWIDTH 12 0
BBX 8 11 2 1
BITMAP
66
66
00
3c
7e
e7
c3
c3
e7
7e
3c
ENDCHAR
STARTCHAR C225
ENCODING 149
SWIDTH 1061 0
DWIDTH 12 0
BBX 8 11 2 1
BITMAP
f0
3c
00
3c
7e
e7
c3
c3
e7
7e
3c
ENDCHAR
STARTCHAR C226
ENCODING 150
SWIDTH 1061 0
DWIDTH 12 0
BBX 8 11 2 1
BITMAP
1c
77
00
c3
c3
c3
c3
c3
e7
7f
3b
ENDCHAR
STARTCHAR C227
ENCODING 151
SWIDTH 1061 0
DWIDTH 12 0
BBX 8 11 2 1
BITMAP
f0
3c
00
c6
c6
c6
c6
c6
ee
7f
3b
ENDCHAR
STARTCHAR C230
ENCODING 152
SWIDTH 1061 0
DWIDTH 12 0
BBX 7 12 3 0
BITMAP
c6
c6
00
c6
c6
c6
c6
fe
7e
06
fe
7c
ENDCHAR
STARTCHAR C231
ENCODING 153
SWIDTH 1061 0
DWIDTH 12 0
BBX 10 11 1 1
BITMAP
c0c0
c0c0
1e00
7f80
e1c0
c0c0
c0c0
c0c0
e1c0
7f80
1e00
ENDCHAR
STARTCHAR C232
ENCODING 154
SWIDTH 1061 0
DWIDTH 12 0
BBX 8 11 2 1
BITMAP
c3
c3
00
c3
c3
c3
c3
c3
c3
ff
7e
ENDCHAR
STARTCHAR C233
ENCODING 155
SWIDTH 1061 0
DWIDTH 12 0
BBX 8 12 2 0
BITMAP
0c
0c
3e
7f
e3
c0
c0
e3
7f
3e
0c
0c
ENDCHAR
STARTCHAR C234
ENCODING 156
SWIDTH 1061 0
DWIDTH 12 0
BBX 8 10 2 1
BITMAP
3e
7f
63
61
fc
f8
60
61
ff
fe
ENDCHAR
STARTCHAR C235
ENCODING 157
SWIDTH 1061 0
DWIDTH 12 0
BBX 8 11 2 1
BITMAP
c3
e7
7e
3c
ff
ff
18
ff
ff
18
18
ENDCHAR
STARTCHAR C236
ENCODING 158
SWIDTH 1061 0
DWIDTH 12 0
BBX 9 11 2 1
BITMAP
fc00
ee00
ee00
ee00
ee00
fd00
e300
e780
e300
e300
e180
ENDCHAR
STARTCHAR C237
ENCODING 159
SWIDTH 1061 0
DWIDTH 12 0
BBX 8 11 2 1
BITMAP
0e
1f
1b
18
3e
7c
18
18
d8
f8
70
ENDCHAR
STARTCHAR nobreakspace
ENCODING 160
SWIDTH 1061 0
DWIDTH 12 0
BBX 8 11 2 1
BITMAP
0f
3c
00
3e
63
03
7f
e3
c3
ff
79
ENDCHAR
STARTCHAR exclamdown
ENCODING 161
SWIDTH 1061 0
DWIDTH 12 0
BBX 6 11 4 1
BITMAP
3c
f0
00
e0
60
60
60
60
60
f0
f0
ENDCHAR
STARTCHAR cent
ENCODING 162
SWIDTH 1061 0
DWIDTH 12 0
BBX 8 11 2 1
BITMAP
0f
3c
00
3c
7e
e7
c3
c3
e7
7e
3c
ENDCHAR
STARTCHAR sterling
ENCODING 163
SWIDTH 1061 0
DWIDTH 12 0
BBX 8 11 2 1
BITMAP
0f
3c
00
c6
c6
c6
c6
c6
ee
7f
3b
ENDCHAR
STARTCHAR currency
ENCODING 164
SWIDTH 1061 0
DWIDTH 12 0
BBX 8 11 2 1
BITMAP
7b
de
00
9e
ff
e3
c3
c3
c3
c3
c3
ENDCHAR
STARTCHAR yen
ENCODING 165
SWIDTH 1061 0
DWIDTH 12 0
BBX 8 11 2 1
BITMAP
7b
de
00
c3
e3
f3
db
cf
c7
c3
c3
ENDCHAR
STARTCHAR brokenbar
ENCODING 166
SWIDTH 1061 0
DWIDTH 12 0
BBX 8 10 2 1
BITMAP
3e
63
03
7f
e3
c3
ff
79
00
ff
ENDCHAR
STARTCHAR section
ENCODING 167
SWIDTH 1061 0
DWIDTH 12 0
BBX 8 10 2 1
BITMAP
3c
7e
e7
c3
c3
e7
7e
3c
00
ff
ENDCHAR
STARTCHAR diaeresis
ENCODING 168
SWIDTH 1061 0
DWIDTH 12 0
BBX 8 11 3 1
BITMAP
18
18
00
18
18
38
70
e3
e3
ff
7e
ENDCHAR
STARTCHAR copyright
ENCODING 169
SWIDTH 1061 0
DWIDTH 12 0
BBX 8 5 2 3
BITMAP
ff
ff
c0
c0
c0
ENDCHAR
STARTCHAR ordfeminine
ENCODING 170
SWIDTH 1061 0
DWIDTH 12 0
BBX 8 5 2 3
BITMAP
ff
ff
03
03
03
ENDCHAR
STARTCHAR guillemotleft
ENCODING 171
SWIDTH 1061 0
DWIDTH 12 0
BBX 11 12 0 0
BITMAP
e000
60c0
61c0
6380
6700
6e00
1de0
3b60
70c0
6180
0360
03e0
ENDCHAR
STARTCHAR notsign
ENCODING 172
SWIDTH 1061 0
DWIDTH 12 0
BBX 12 12 0 0
BITMAP
e000
60c0
61c0
6380
6700
6e60
1ce0
39e0
7360
63f0
0060
0060
ENDCHAR
STARTCHAR hyphen
ENCODING 173
SWIDTH 1061 0
DWIDTH 12 0
BBX 4 11 4 1
BITMAP
60
60
00
60
60
f0
f0
f0
f0
f0
60
ENDCHAR
STARTCHAR registered
ENCODING 174
SWIDTH 1061 0
DWIDTH 12 0
BBX 10 7 1 3
BITMAP
18c0
3180
6300
c600
6300
3180
18c0
ENDCHAR
STARTCHAR macron
ENCODING 175
SWIDTH 1061 0
DWIDTH 12 0
BBX 10 7 1 3
BITMAP
c600
6300
3180
18c0
3180
6300
c600
ENDCHAR
STARTCHAR degree
ENCODING 176
SWIDTH 1061 0
DWIDTH 12 0
BBX 11 12 0 0
BITMAP
2220
8880
2220
8880
2220
8880
2220
8880
2220
8880
2220
8880
ENDCHAR
STARTCHAR plusminus
ENCODING 177
SWIDTH 1061 0
DWIDTH 12 0
BBX 12 12 0 0
BITMAP
aaa0
5550
aaa0
5550
aaa0
5550
aaa0
5550
aaa0
5550
aaa0
5550
ENDCHAR
STARTCHAR twosuperior
ENCODING 178
SWIDTH 1061 0
DWIDTH 12 0
BBX 12 12 0 0
BITMAP
ddd0
7770
ddd0
7770
ddd0
7770
ddd0
7770
ddd0
7770
ddd0
7770
ENDCHAR
STARTCHAR threesuperior
ENCODING 179
SWIDTH 1061 0
DWIDTH 12 0
BBX 1 12 6 0
BITMAP
80
80
80
80
80
80
80
80
80
80
80
80
ENDCHAR
STARTCHAR acute
ENCODING 180
SWIDTH 1061 0
DWIDTH 12 0
BBX 7 12 0 0
BITMAP
02
02
02
02
02
fe
02
02
02
02
02
02
ENDCHAR
STARTCHAR mu
ENCODING 181
SWIDTH 1061 0
DWIDTH 12 0
BBX 7 12 0 0
BITMAP
02
02
02
02
fe
02
fe
02
02
02
02
02
ENDCHAR
STARTCHAR paragraph
ENCODING 182
SWIDTH 1061 0
DWIDTH 12 0
BBX 8 12 0 0
BITMAP
05
05
05
05
05
fd
05
05
05
05
05
05
ENDCHAR
STARTCHAR periodcentered
ENCODING 183
SWIDTH 1061 0
DWIDTH 12 0
BBX 8 7 0 0
BITMAP
ff
05
05
05
05
05
05
ENDCHAR
STARTCHAR cedilla
ENCODING 184
SWIDTH 1061 0
DWIDTH 12 0
BBX 7 8 0 0
BITMAP
fe
02
fe
02
02
02
02
02
ENDCHAR
STARTCHAR onesuperior
ENCODING 185
SWIDTH 1061 0
DWIDTH 12 0
BBX 8 12 0 0
BITMAP
05
05
05
05
fd
01
fd
05
05
05
05
05
ENDCHAR
STARTCHAR masculine
ENCODING 186
SWIDTH 1061 0
DWIDTH 12 0
BBX 3 12 5 0
BITMAP
a0
a0
a0
a0
a0
a0
a0
a0
a0
a0
a0
a0
ENDCHAR
STARTCHAR guillemotright
ENCODING 187
SWIDTH 1061 0
DWIDTH 12 0
BBX 8 8 0 0
BITMAP
ff
01
fd
05
05
05
05
05
ENDCHAR
STARTCHAR onequarter
ENCODING 188
SWIDTH 1061 0
DWIDTH 12 0
BBX 8 7 0 5
BITMAP
05
05
05
05
fd
01
ff
ENDCHAR
STARTCHAR onehalf
ENCODING 189
SWIDTH 1061 0
DWIDTH 12 0
BBX 8 6 0 6
BITMAP
05
05
05
05
05
ff
ENDCHAR
STARTCHAR threequarters
ENCODING 190
SWIDTH 1061 0
DWIDTH 12 0
BBX 7 7 0 5
BITMAP
02
02
02
02
fe
02
fe
ENDCHAR
STARTCHAR questiondown
ENCODING 191
SWIDTH 1061 0
DWIDTH 12 0
BBX 7 7 0 0
BITMAP
fe
02
02
02
02
02
02
ENDCHAR
STARTCHAR Agrave
ENCODING 192
SWIDTH 1061 0
DWIDTH 12 0
BBX 6 6 6 6
BITMAP
80
80
80
80
80
fc
ENDCHAR
STARTCHAR Aacute
ENCODING 193
SWIDTH 1061 0
DWIDTH 12 0
BBX 12 6 0 6
BITMAP
0200
0200
0200
0200
0200
fff0
ENDCHAR
STARTCHAR Acircumflex
ENCODING 194
SWIDTH 1061 0
DWIDTH 12 0
BBX 12 7 0 0
BITMAP
fff0
0200
0200
0200
0200
0200
0200
ENDCHAR
STARTCHAR Atilde
ENCODING 195
SWIDTH 1061 0
DWIDTH 12 0
BBX 6 12 6 0
BITMAP
80
80
80
80
80
fc
80
80
80
80
80
80
ENDCHAR
STARTCHAR Adiaeresis
ENCODING 196
SWIDTH 1061 0
DWIDTH 12 0
BBX 12 1 0 6
BITMAP
fff0
ENDCHAR
STARTCHAR Aring
ENCODING 197
SWIDTH 1061 0
DWIDTH 12 0
BBX 12 12 0 0
BITMAP
0200
0200
0200
0200
0200
fff0
0200
0200
0200
0200
0200
0200
ENDCHAR
STARTCHAR AE
ENCODING 198
SWIDTH 1061 0
DWIDTH 12 0
BBX 6 12 6 0
BITMAP
80
80
80
80
fc
80
fc
80
80
80
80
80
ENDCHAR
STARTCHAR Ccedilla
ENCODING 199
SWIDTH 1061 0
DWIDTH 12 0
BBX 7 12 5 0
BITMAP
a0
a0
a0
a0
a0
be
a0
a0
a0
a0
a0
a0
ENDCHAR
STARTCHAR Egrave
ENCODING 200
SWIDTH 1061 0
DWIDTH 12 0
BBX 7 7 5 5
BITMAP
a0
a0
a0
a0
be
80
fe
ENDCHAR
STARTCHAR Eacute
ENCODING 201
SWIDTH 1061 0
DWIDTH 12 0
BBX 7 8 5 0
BITMAP
fe
80
be
a0
a0
a0
a0
a0
ENDCHAR
STARTCHAR Ecircumflex
ENCODING 202
SWIDTH 1061 0
DWIDTH 12 0
BBX 12 7 0 5
BITMAP
0500
0500
0500
0500
fdf0
0000
fff0
ENDCHAR
STARTCHAR Ediaeresis
ENCODING 203
SWIDTH 1061 0
DWIDTH 12 0
BBX 12 8 0 0
BITMAP
fff0
0000
fdf0
0500
0500
0500
0500
0500
ENDCHAR
STARTCHAR Igrave
ENCODING 204
SWIDTH 1061 0
DWIDTH 12 0
BBX 7 12 5 0
BITMAP
a0
a0
a0
a0
be
80
be
a0
a0
a0
a0
a0
ENDCHAR
STARTCHAR Iacute
ENCODING 205
SWIDTH 1061 0
DWIDTH 12 0
BBX 12 3 0 5
BITMAP
fff0
0000
fff0
ENDCHAR
STARTCHAR Icircumflex
ENCODING 206
SWIDTH 1061 0
DWIDTH 12 0
BBX 12 12 0 0
BITMAP
0500
0500
0500
0500
fdf0
0000
fdf0
0500
0500
0500
0500
0500
ENDCHAR
STARTCHAR Idiaeresis
ENCODING 207
SWIDTH 1061 0
DWIDTH 12 0
BBX 12 7 0 5
BITMAP
0200
0200
0200
0200
fff0
0000
fff0
ENDCHAR
STARTCHAR ETH
ENCODING 208
SWIDTH 1061 0
DWIDTH 12 0
BBX 12 6 0 6
BITMAP
0500
0500
0500
0500
0500
fff0
ENDCHAR
STARTCHAR Ntilde
ENCODING 209
SWIDTH 1061 0
DWIDTH 12 0
BBX 12 8 0 0
BITMAP
fff0
0000
fff0
0200
0200
0200
0200
0200
ENDCHAR
STARTCHAR Ograve
ENCODING 210
SWIDTH 1061 0
DWIDTH 12 0
BBX 12 7 0 0
BITMAP
fff0
0500
0500
0500
0500
0500
0500
ENDCHAR
STARTCHAR Oacute
ENCODING 211
SWIDTH 1061 0
DWIDTH 12 0
BBX 7 6 5 6
BITMAP
a0
a0
a0
a0
a0
fe
ENDCHAR
STARTCHAR Ocircumflex
ENCODING 212
SWIDTH 1061 0
DWIDTH 12 0
BBX 6 7 6 5
BITMAP
80
80
80
80
fc
80
fc
ENDCHAR
STARTCHAR Otilde
ENCODING 213
SWIDTH 1061 0
DWIDTH 12 0
BBX 6 8 6 0
BITMAP
fc
80
fc
80
80
80
80
80
ENDCHAR
STARTCHAR Odiaeresis
ENCODING 214
SWIDTH 1061 0
DWIDTH 12 0
BBX 7 7 5 0
BITMAP
fe
a0
a0
a0
a0
a0
a0
ENDCHAR
STARTCHAR multiply
ENCODING 215
SWIDTH 1061 0
DWIDTH 12 0
BBX 12 12 0 0
BITMAP
0500
0500
0500
0500
0500
fff0
0500
0500
0500
0500
0500
0500
ENDCHAR
STARTCHAR Ooblique
ENCODING 216
SWIDTH 1061 0
DWIDTH 12 0
BBX 12 12 0 0
BITMAP
0200
0200
0200
0200
fff0
0200
fff0
0200
0200
0200
0200
0200
ENDCHAR
STARTCHAR Ugrave
ENCODING 217
SWIDTH 1061 0
DWIDTH 12 0
BBX 7 6 0 6
BITMAP
02
02
02
02
02
fe
ENDCHAR
STARTCHAR Uacute
ENCODING 218
SWIDTH 1061 0
DWIDTH 12 0
BBX 6 7 6 0
BITMAP
fc
80
80
80
80
80
80
ENDCHAR
STARTCHAR Ucircumflex
ENCODING 219
SWIDTH 1061 0
DWIDTH 12 0
BBX 12 12 0 0
BITMAP
fff0
fff0
fff0
fff0
fff0
fff0
fff0
fff0
fff0
fff0
fff0
fff0
ENDCHAR
STARTCHAR Udiaeresis
ENCODING 220
SWIDTH 1061 0
DWIDTH 12 0
BBX 12 6 0 0
BITMAP
fff0
fff0
fff0
fff0
fff0
fff0
ENDCHAR
STARTCHAR Yacute
ENCODING 221
SWIDTH 1061 0
DWIDTH 12 0
BBX 6 12 0 0
BITMAP
fc
fc
fc
fc
fc
fc
fc
fc
fc
fc
fc
fc
ENDCHAR
STARTCHAR THORN
ENCODING 222
SWIDTH 1061 0
DWIDTH 12 0
BBX 6 12 6 0
BITMAP
fc
fc
fc
fc
fc
fc
fc
fc
fc
fc
fc
fc
ENDCHAR
STARTCHAR ssharp
ENCODING 223
SWIDTH 1061 0
DWIDTH 12 0
BBX 12 6 0 6
BITMAP
fff0
fff0
fff0
fff0
fff0
fff0
ENDCHAR
STARTCHAR agrave
ENCODING 224
SWIDTH 1061 0
DWIDTH 12 0
BBX 10 8 1 1
BITMAP
7bc0
ffc0
ce00
cc00
cc00
ce00
ffc0
7bc0
ENDCHAR
STARTCHAR aacute
ENCODING 225
SWIDTH 1061 0
DWIDTH 12 0
BBX 8 11 2 0
BITMAP
7e
ff
c3
ff
fe
c3
ff
fe
c0
c0
c0
ENDCHAR
STARTCHAR acircumflex
ENCODING 226
SWIDTH 1061 0
DWIDTH 12 0
BBX 8 9 2 1
BITMAP
7f
7f
61
60
60
60
60
60
f0
ENDCHAR
STARTCHAR atilde
ENCODING 227
SWIDTH 1061 0
DWIDTH 12 0
BBX 8 9 2 1
BITMAP
ff
ff
66
66
66
66
66
66
66
ENDCHAR
STARTCHAR adiaeresis
ENCODING 228
SWIDTH 1061 0
DWIDTH 12 0
BBX 8 11 2 1
BITMAP
ff
ff
e1
70
38
1c
38
70
e1
ff
ff
ENDCHAR
STARTCHAR aring
ENCODING 229
SWIDTH 1061 0
DWIDTH 12 0
BBX 9 8 2 1
BITMAP
3f80
7f80
ee00
c600
c600
ee00
7c00
3800
ENDCHAR
STARTCHAR ae
ENCODING 230
SWIDTH 1061 0
DWIDTH 12 0
BBX 8 10 2 0
BITMAP
33
33
33
33
33
3f
3e
30
f0
e0
ENDCHAR
STARTCHAR ccedilla
ENCODING 231
SWIDTH 1061 0
DWIDTH 12 0
BBX 10 10 1 1
BITMAP
7380
ffc0
ce00
8c00
0c00
0c00
0c00
0c00
0c00
1e00
ENDCHAR
STARTCHAR egrave
ENCODING 232
SWIDTH 1061 0
DWIDTH 12 0
BBX 8 12 2 0
BITMAP
ff
ff
18
7e
ff
c3
c3
ff
7e
18
ff
ff
ENDCHAR
STARTCHAR eacute
ENCODING 233
SWIDTH 1061 0
DWIDTH 12 0
BBX 8 10 2 1
BITMAP
3c
7e
e7
c3
ff
ff
c3
e7
7e
3c
ENDCHAR
STARTCHAR ecircumflex
ENCODING 234
SWIDTH 1061 0
DWIDTH 12 0
BBX 9 10 2 1
BITMAP
1c00
3e00
7700
6300
6300
6300
3600
3600
f780
e380
ENDCHAR
STARTCHAR ediaeresis
ENCODING 235
SWIDTH 1061 0
DWIDTH 12 0
BBX 8 11 2 1
BITMAP
1f
3f
38
1c
0e
7f
ff
c3
c3
ff
7e
ENDCHAR
STARTCHAR igrave
ENCODING 236
SWIDTH 1061 0
DWIDTH 12 0
BBX 10 6 1 3
BITMAP
7380
ffc0
ccc0
ccc0
ffc0
7380
ENDCHAR
STARTCHAR iacute
ENCODING 237
SWIDTH 1061 0
DWIDTH 12 0
BBX 10 11 1 0
BITMAP
01c0
0380
0600
7f80
ffc0
ccc0
ffc0
7f80
1800
7000
e000
ENDCHAR
STARTCHAR icircumflex
ENCODING 238
SWIDTH 1061 0
DWIDTH 12 0
BBX 8 10 2 1
BITMAP
3f
7f
e0
c0
ff
ff
c0
e0
7f
3f
ENDCHAR
STARTCHAR idiaeresis
ENCODING 239
SWIDTH 1061 0
DWIDTH 12 0
BBX 8 11 2 1
BITMAP
3c
7e
e7
c3
c3
c3
c3
c3
c3
c3
c3
ENDCHAR
STARTCHAR eth
ENCODING 240
SWIDTH 1061 0
DWIDTH 12 0
BBX 8 8 2 2
BITMAP
ff
ff
00
ff
ff
00
ff
ff
ENDCHAR
STARTCHAR ntilde
ENCODING 241
SWIDTH 1061 0
DWIDTH 12 0
BBX 8 11 2 1
BITMAP
18
18
18
ff
ff
18
18
18
00
ff
ff
ENDCHAR
STARTCHAR ograve
ENCODING 242
SWIDTH 1061 0
DWIDTH 12 0
BBX 8 11 2 1
BITMAP
70
78
1c
0e
0e
1c
78
70
00
ff
ff
ENDCHAR
STARTCHAR oacute
ENCODING 243
SWIDTH 1061 0
DWIDTH 12 0
BBX 8 11 2 1
BITMAP
0e
1e
38
70
70
38
1e
0e
00
ff
ff
ENDCHAR
STARTCHAR ocircumflex
ENCODING 244
SWIDTH 1061 0
DWIDTH 12 0
BBX 6 12 5 0
BITMAP
30
78
fc
cc
cc
c0
c0
c0
c0
c0
c0
c0
ENDCHAR
STARTCHAR otilde
ENCODING 245
SWIDTH 1061 0
DWIDTH 12 0
BBX 6 12 1 0
BITMAP
0c
0c
0c
0c
0c
0c
0c
cc
cc
fc
78
30
ENDCHAR
STARTCHAR odiaeresis
ENCODING 246
SWIDTH 1061 0
DWIDTH 12 0
BBX 8 8 2 2
BITMAP
18
18
00
ff
ff
00
18
18
ENDCHAR
STARTCHAR division
ENCODING 247
SWIDTH 1061 0
DWIDTH 12 0
BBX 8 7 2 2
BITMAP
73
ff
ce
00
73
ff
ce
ENDCHAR
STARTCHAR oslash
ENCODING 248
SWIDTH 1061 0
DWIDTH 12 0
BBX 7 6 3 6
BITMAP
7c
fe
c6
c6
fe
7c
ENDCHAR
STARTCHAR ugrave
ENCODING 249
SWIDTH 1061 0
DWIDTH 12 0
BBX 5 4 3 3
BITMAP
70
f8
f8
70
ENDCHAR
STARTCHAR uacute
ENCODING 250
SWIDTH 1061 0
DWIDTH 12 0
BBX 3 3 4 3
BITMAP
e0
e0
e0
ENDCHAR
STARTCHAR ucircumflex
ENCODING 251
SWIDTH 1061 0
DWIDTH 12 0
BBX 11 12 1 0
BITMAP
07e0
0600
0600
0600
0600
0600
0600
f600
7600
3e00
1e00
0e00
ENDCHAR
STARTCHAR udiaeresis
ENCODING 252
SWIDTH 1061 0
DWIDTH 12 0
BBX 6 7 2 5
BITMAP
d8
fc
ec
cc
cc
cc
cc
ENDCHAR
STARTCHAR yacute
ENCODING 253
SWIDTH 1061 0
DWIDTH 12 0
BBX 6 7 2 5
BITMAP
f8
fc
9c
38
74
fc
fc
ENDCHAR
STARTCHAR thorn
ENCODING 254
SWIDTH 1061 0
DWIDTH 12 0
BBX 6 6 3 3
BITMAP
fc
fc
fc
fc
fc
fc
ENDCHAR
STARTCHAR ydiaeresis
ENCODING 255
SWIDTH 1061 0
DWIDTH 12 0
BBX 0 0 0 0
BITMAP
ENDCHAR
ENDFONT
